# xmcd
#
# Track frame offsets:
#	150
#	10897
#	22907
#	36987
#	47320
#	60077
#	72470
#	83057
#	93305
#	103375
#	116407
#	128925
#	143585
#	154997
#	167625
#	178440
#	188012
#	198712
#
# Disc length: 2865 seconds
#
# Revision: 1
# Processed by: cddbd v1.4PL0 Copyright (c) Steve Scherf et al.
# Submitted via: audiograbber 1.81.00
#
DISCID=f10b2f12
DTITLE=Connie Francis - cd - Connie's Country
DYEAR=1900
DGENRE=Country
TTITLE0=Bye Bye Love
TTITLE1=I Fall To Pieces
TTITLE2=I Don't Wanna Play House
TTITLE3=Oh Lonesome Me
TTITLE4=I Can't Stop Loving You
TTITLE5=Heartaches By The Number
TTITLE6=Your Cheatin' Heart
TTITLE7=Singing The Blues
TTITLE8=I Walk The Line
TTITLE9=Tennessee Waltz
TTITLE10=Cold Cold Heart
TTITLE11=I Really Don't Want To know
TTITLE12=I'm A Fool To Care
TTITLE13=Half As Much
TTITLE14=Room Full Of Roses
TTITLE15=I Don't Hurt Anymore
TTITLE16=How's The World Treating You
TTITLE17=Peace In The Valley
EXTD=
EXTT0=
EXTT1=
EXTT2=
EXTT3=
EXTT4=
EXTT5=
EXTT6=
EXTT7=
EXTT8=
EXTT9=
EXTT10=
EXTT11=
EXTT12=
EXTT13=
EXTT14=
EXTT15=
EXTT16=
EXTT17=
PLAYORDER=
